#!OML:ASF E:\CV Data\Top Level 1\Subject 1\Session 1\player.ASF
:FULLY-SPECIFIED
:DEGREES
949
root 6.53629 15.7942 -9.68027 128.779 -76.509 -150.823
lowerback 9.94313 1.04063 6.29707
upperback 2.08047 1.99365 1.36324
thorax -3.23244 0.901305 -2.36565
lowerneck -14.0347 15.3273 -4.46399
upperneck 28.2903 19.1367 12.8797
head 9.38634 9.81976 7.20991
rclavicle 8.05078e-015 3.18055e-015
rhumerus 172.259 152.241 85.3758
rradius 87.0449
rwrist 4.8388
rhand -44.4978 39.7525
rfingers 7.12502
rthumb -17.3004 10.5026
lclavicle 8.05078e-015 3.18055e-015
lhumerus 15.5907 -40.1365 76.8502
lradius 81.0452
lwrist -3.11695
lhand -26.7713 -0.489958
lfingers 7.12502
lthumb -0.199176 29.4897
rfemur -1.39008 3.72445 35.7186
rtibia 54.655
rfoot -28.023 1.18552
rtoes 11.1083
lfemur -42.3431 20.6083 -7.40309
ltibia 65.3871
lfoot -14.784 -6.09009
ltoes -15.5156
950
root 6.50351 15.8066 -9.64751 128.26 -76.5654 -150.409
lowerback 10.0962 1.00442 6.46197
upperback 2.23485 1.96352 1.53724
thorax -3.15823 0.886156 -2.27455
lowerneck -14.1068 15.3258 -4.45129
upperneck 28.3155 19.1867 12.6844
head 9.42983 9.81901 7.1616
rclavicle -2.59414e-014 3.57812e-015
rhumerus 171.976 153.7 84.5695
rradius 84.7386
rwrist 3.92523
rhand -43.9168 38.3141
rfingers 7.12502
rthumb -16.7411 9.01591
lclavicle -2.59414e-014 3.57812e-015
lhumerus 16.6851 -39.7184 75.7657
lradius 77.692
lwrist -4.76566
lhand -25.5777 0.169883
lfingers 7.12502
lthumb 0.953585 30.1475
rfemur -1.0422 3.53457 35.576
rtibia 54.3972
rfoot -28.0522 1.12958
rtoes 10.797
lfemur -43.4345 20.6907 -7.81891
ltibia 62.4566
lfoot -14.796 -5.81698
ltoes -16.058
951
root 6.47345 15.8197 -9.61423 127.695 -76.6377 -149.917
lowerback 10.2374 0.964909 6.63432
upperback 2.38994 1.92821 1.7075
thorax -3.07643 0.868538 -2.19039
lowerneck -14.2039 15.3211 -4.46223
upperneck 28.3269 19.2384 12.4966
head 9.46927 9.81864 7.11989
rclavicle -1.0138e-014 1.35174e-014
rhumerus 171.729 155.188 83.8434
rradius 82.3093
rwrist 3.12167
rhand -43.4077 36.8464
rfingers 7.12502
rthumb -16.251 7.50748
lclavicle -1.0138e-014 1.35174e-014
lhumerus 17.8072 -39.3291 74.6115
lradius 74.2637
lwrist -6.59562
lhand -24.4222 0.722774
lfingers 7.12502
lthumb 2.06962 30.6925
rfemur -0.741284 3.34303 35.4286
rtibia 54.1383
rfoot -28.0725 1.07738
rtoes 10.4593
lfemur -44.4651 20.7089 -8.21152
ltibia 59.4846
lfoot -14.7099 -5.4181
ltoes -16.5868
952
root 6.44611 15.8333 -9.58054 127.136 -76.7277 -149.406
lowerback 10.375 0.92462 6.79601
upperback 2.54476 1.88996 1.87116
thorax -2.99309 0.849542 -2.10655
lowerneck -14.3093 15.3154 -4.48479
upperneck 28.3125 19.293 12.3091
head 9.49958 9.81976 7.07814
rclavicle -3.60794e-014 -3.02153e-014
rhumerus 171.517 156.69 83.2013
rradius 79.7645
rwrist 2.35049
rhand -42.9767 35.336
rfingers 7.12502
rthumb -15.8359 5.96364
lclavicle -3.60794e-014 -3.02153e-014
lhumerus 18.9458 -38.961 73.4029
lradius 70.7839
lwrist -8.41224
lhand -23.3332 1.09581
lfingers 7.12502
lthumb 3.1213 31.0527
rfemur -0.479756 3.15787 35.2685
rtibia 53.8822
rfoot -28.0887 0.994683
rtoes 10.0333
lfemur -45.4249 20.6617 -8.57592
ltibia 56.4891
lfoot -14.5153 -4.89488
ltoes -17.0827
953
root 6.42138 15.8475 -9.54564 126.593 -76.8236 -148.899
lowerback 10.5196 0.883096 6.96017
upperback 2.70406 1.84989 2.02959
thorax -2.90849 0.829588 -2.02924
lowerneck -14.4223 15.3123 -4.51577
upperneck 28.2756 19.3564 12.1156
head 9.52236 9.8244 7.03469
rclavicle 3.64273e-014 2.60408e-014
rhumerus 171.344 158.18 82.6482
rradius 77.1161
rwrist 1.49661
rhand -42.5982 33.8025
rfingers 7.12502
rthumb -15.4714 4.40161
lclavicle 3.64273e-014 2.60408e-014
lhumerus 20.0789 -38.5876 72.1719
lradius 67.2914
lwrist -10.0351
lhand -22.3042 1.23593
lfingers 7.12502
lthumb 4.11499 31.1759
rfemur -0.244461 2.98157 35.0967
rtibia 53.6276
rfoot -28.097 0.906127
rtoes 9.56913
lfemur -46.2984 20.5407 -8.88623
ltibia 53.4908
lfoot -14.198 -4.24828
ltoes -17.4769
954
root 6.3995 15.8621 -9.51034 126.102 -76.9297 -148.426
lowerback 10.6694 0.844329 7.1055
upperback 2.8645 1.81138 2.18266
thorax -2.82563 0.810407 -1.94714
lowerneck -14.5404 15.314 -4.54067
upperneck 28.224 19.4292 11.9094
head 9.54241 9.83288 6.98631
rclavicle -2.40281e-014 -2.61402e-014
rhumerus 171.211 159.644 82.1881
rradius 74.3918
rwrist 0.42344
rhand -42.2047 32.3019
rfingers 7.12502
rthumb -15.0924 2.87206
lclavicle -2.40281e-014 -2.61402e-014
lhumerus 21.1934 -38.2238 70.8997
lradius 63.8517
lwrist -11.278
lhand -21.3728 1.22908
lfingers 7.12502
lthumb 5.01441 31.1497
rfemur -0.0411928 2.8223 34.9115
rtibia 53.3776
rfoot -28.098 0.807198
rtoes 9.07079
lfemur -47.0949 20.3599 -9.14024
ltibia 50.5088
lfoot -13.769 -3.50362
ltoes -17.7703
955
root 6.38008 15.8775 -9.47426 125.69 -77.0358 -148.023
lowerback 10.8297 0.810596 7.24469
upperback 3.02755 1.77906 2.32627
thorax -2.74487 0.794222 -1.87227
lowerneck -14.6603 15.3212 -4.56068
upperneck 28.1587 19.5114 11.6947
head 9.55883 9.84556 6.93429
rclavicle -1.05232e-014 -3.26007e-014
rhumerus 171.114 161.067 81.8165
rradius 71.6234
rwrist -0.975069
rhand -41.7434 30.9247
rfingers 7.12502
rthumb -14.648 1.46204
lclavicle -1.05232e-014 -3.26007e-014
lhumerus 22.2652 -37.8678 69.5928
lradius 60.5119
lwrist -12.0811
lhand -20.4444 1.02874
lfingers 7.12502
lthumb 5.91077 30.9263
rfemur 0.140509 2.68539 34.7148
rtibia 53.1303
rfoot -28.0872 0.69512
rtoes 8.53557
lfemur -47.8075 20.1253 -9.32003
ltibia 47.5667
lfoot -13.2786 -2.66422
ltoes -18.023
956
root 6.36324 15.8931 -9.4376 125.315 -77.1361 -147.639
lowerback 10.9982 0.780454 7.38193
upperback 3.19007 1.75167 2.46657
thorax -2.66839 0.780237 -1.80037
lowerneck -14.7854 15.3344 -4.57119
upperneck 28.0863 19.6024 11.4708
head 9.57535 9.86221 6.87891
rclavicle 1.54679e-015 -8.19987e-016
rhumerus 171.054 162.442 81.5338
rradius 68.8281
rwrist -2.71155
rhand -41.1513 29.7933
rfingers 7.12502
rthumb -14.0774 0.290106
lclavicle 1.54679e-015 -8.19987e-016
lhumerus 23.2779 -37.494 68.2908
lradius 57.2811
lwrist -12.5207
lhand -19.5958 0.840054
lfingers 7.12502
lthumb 6.73 30.7131
rfemur 0.291515 2.57051 34.5216
rtibia 52.8881
rfoot -28.0613 0.596028
rtoes 8.03456
lfemur -48.4589 19.8493 -9.41271
ltibia 44.689
lfoot -12.7791 -1.7583
ltoes -18.1595
